<svg width="474" height="113" viewBox="0 0 474 113" fill="none" xmlns="http://www.w3.org/2000/svg">
<path d="M371.999 5.43685C369.061 2.03463 364.827 0 360.332 0H322.823C318.404 0 316.157 5.31217 319.235 8.48275L362.23 52.7717C364.107 54.7053 364.115 57.7785 362.246 59.7206L319.143 104.534C316.088 107.711 318.339 113 322.747 113H360.052C364.706 113 369.064 110.817 372.04 107.239C384.325 92.4668 404.028 73.5023 425.966 73.5023C430.376 73.5023 434.989 74.0694 439.615 75.9094C442.424 77.0265 445.238 78.6129 448.014 80.8264C439.825 64.5042 444.602 41.5903 448.014 32.1736C444.754 34.2757 442.02 35.7768 439.615 36.8478C434.12 39.2952 430.348 39.4977 425.966 39.4977C414.899 39.4977 404.218 34.2966 394.731 27.2433C385.902 20.6789 378.107 12.5102 371.999 5.43685Z" fill="url(#paint0_linear_748_217)"/>
<path d="M394.731 27.2433C404.218 34.2966 414.899 39.4977 425.966 39.4977C430.348 39.4977 434.12 39.2952 439.615 36.8478L466.151 8.41125C469.134 5.21503 466.867 0 462.495 0H427.138C423.037 0 419.115 1.67924 416.284 4.64692L394.731 27.2433Z" fill="url(#paint1_linear_748_217)"/>
<path d="M425.966 73.5023C414.737 73.5023 404.094 78.4707 394.731 85.3022L416.272 108.263C419.108 111.285 423.068 113 427.212 113H462.547C466.911 113 469.18 107.801 466.213 104.601L439.615 75.9094C434.989 74.0694 430.376 73.5023 425.966 73.5023Z" fill="url(#paint2_linear_748_217)"/>
<path d="M52.896 40.4V60.416C52.896 65.024 51.712 68.528 49.344 70.928C47.008 73.296 43.648 74.48 39.264 74.48C36.896 74.48 34.784 74.112 32.928 73.376C31.104 72.608 29.648 71.568 28.56 70.256C27.44 71.568 25.968 72.608 24.144 73.376C22.352 74.112 20.272 74.48 17.904 74.48C13.52 74.48 10.144 73.28 7.776 70.88C5.408 68.48 4.224 64.992 4.224 60.416V40.4H10.464V60.224C10.464 63.264 11.088 65.488 12.336 66.896C13.616 68.304 15.472 69.008 17.904 69.008C22.928 69.008 25.44 66.08 25.44 60.224V40.4H31.68V60.224C31.68 66.08 34.208 69.008 39.264 69.008C44.224 69.008 46.704 66.08 46.704 60.224V40.4H52.896ZM77.3955 74.48C73.9715 74.48 70.8835 73.744 68.1315 72.272C65.3795 70.768 63.2195 68.704 61.6515 66.08C60.0835 63.424 59.2995 60.464 59.2995 57.2C59.2995 53.936 60.0835 50.992 61.6515 48.368C63.2195 45.712 65.3795 43.648 68.1315 42.176C70.8835 40.672 73.9715 39.92 77.3955 39.92C80.8195 39.92 83.9075 40.672 86.6595 42.176C89.4115 43.648 91.5715 45.696 93.1395 48.32C94.7075 50.944 95.4915 53.904 95.4915 57.2C95.4915 60.496 94.7075 63.456 93.1395 66.08C91.5715 68.704 89.4115 70.768 86.6595 72.272C83.9075 73.744 80.8195 74.48 77.3955 74.48ZM77.3955 69.008C79.6355 69.008 81.6515 68.512 83.4435 67.52C85.2355 66.496 86.6435 65.088 87.6675 63.296C88.6915 61.472 89.2035 59.44 89.2035 57.2C89.2035 54.96 88.6915 52.944 87.6675 51.152C86.6435 49.328 85.2355 47.92 83.4435 46.928C81.6515 45.904 79.6355 45.392 77.3955 45.392C75.1555 45.392 73.1395 45.904 71.3475 46.928C69.5555 47.92 68.1475 49.328 67.1235 51.152C66.0995 52.944 65.5875 54.96 65.5875 57.2C65.5875 59.44 66.0995 61.472 67.1235 63.296C68.1475 65.088 69.5555 66.496 71.3475 67.52C73.1395 68.512 75.1555 69.008 77.3955 69.008ZM102.106 40.4H108.346V68.72H125.914V74H102.106V40.4ZM145.528 45.392C142.648 45.392 140.472 46.032 139 47.312C137.528 48.592 136.792 50.48 136.792 52.976V55.856H151.432V61.136H136.792V74H130.552V52.976C130.552 48.912 131.848 45.728 134.44 43.424C137.064 41.088 140.664 39.92 145.24 39.92C147.16 39.92 148.952 40.128 150.616 40.544C152.28 40.96 153.736 41.568 154.984 42.368L153.016 47.456C151.032 46.08 148.536 45.392 145.528 45.392ZM182.121 74L175.257 64.16C174.969 64.192 174.537 64.208 173.961 64.208H166.377V74H160.137V40.4H173.961C176.873 40.4 179.401 40.88 181.545 41.84C183.721 42.8 185.385 44.176 186.537 45.968C187.689 47.76 188.265 49.888 188.265 52.352C188.265 54.88 187.641 57.056 186.393 58.88C185.177 60.704 183.417 62.064 181.113 62.96L188.841 74H182.121ZM181.977 52.352C181.977 50.208 181.273 48.56 179.865 47.408C178.457 46.256 176.393 45.68 173.673 45.68H166.377V59.072H173.673C176.393 59.072 178.457 58.496 179.865 57.344C181.273 56.16 181.977 54.496 181.977 52.352ZM209.886 39.92C212.894 39.92 215.518 40.512 217.758 41.696C219.998 42.88 221.726 44.64 222.942 46.976C224.19 49.28 224.814 52.08 224.814 55.376V74H218.574V65.36H201.102V74H194.958V55.376C194.958 52.08 195.566 49.28 196.782 46.976C198.03 44.64 199.774 42.88 202.014 41.696C204.254 40.512 206.878 39.92 209.886 39.92ZM218.574 60.128V54.8C218.574 51.696 217.806 49.36 216.27 47.792C214.734 46.192 212.59 45.392 209.838 45.392C207.086 45.392 204.942 46.192 203.406 47.792C201.87 49.36 201.102 51.696 201.102 54.8V60.128H218.574ZM271.079 39.92C275.015 39.92 278.087 41.072 280.295 43.376C282.503 45.648 283.607 48.928 283.607 53.216V74H277.367V53.456C277.367 50.8 276.663 48.8 275.255 47.456C273.879 46.08 272.071 45.392 269.831 45.392C267.335 45.392 265.335 46.096 263.831 47.504C262.359 48.912 261.623 51.072 261.623 53.984V74H255.383V53.456C255.383 50.768 254.727 48.752 253.415 47.408C252.135 46.064 250.375 45.392 248.135 45.392C245.607 45.392 243.575 46.112 242.039 47.552C240.535 48.96 239.783 51.104 239.783 53.984V74H233.543V40.4H239.591V44.816C240.615 43.248 242.007 42.048 243.767 41.216C245.527 40.352 247.559 39.92 249.863 39.92C252.231 39.92 254.295 40.368 256.055 41.264C257.815 42.16 259.143 43.424 260.039 45.056C261.159 43.424 262.679 42.16 264.599 41.264C266.551 40.368 268.711 39.92 271.079 39.92Z" fill="#C0C0C0"/>
<defs>
<linearGradient id="paint0_linear_748_217" x1="311" y1="56.5" x2="440.403" y2="56.5" gradientUnits="userSpaceOnUse">
<stop stop-color="#C0C0C0"/>
<stop offset="1" stop-color="#C0C0C0" stop-opacity="0"/>
</linearGradient>
<linearGradient id="paint1_linear_748_217" x1="474.262" y1="-1.72516e-07" x2="401.908" y2="33.935" gradientUnits="userSpaceOnUse">
<stop stop-color="#C0C0C0"/>
<stop offset="1" stop-color="#C0C0C0" stop-opacity="0"/>
</linearGradient>
<linearGradient id="paint2_linear_748_217" x1="474.262" y1="113" x2="403.751" y2="78.017" gradientUnits="userSpaceOnUse">
<stop stop-color="#C0C0C0"/>
<stop offset="1" stop-color="#C0C0C0" stop-opacity="0"/>
</linearGradient>
</defs>
</svg>
