<svg width="143" height="107" viewBox="0 0 143 107" fill="none" xmlns="http://www.w3.org/2000/svg">
<path d="M52.2327 5.40986C49.2894 2.02668 45.0653 0 40.581 0H5.85748C1.43352 0 -0.810903 5.32264 2.27732 8.49034L42.5292 49.7781C44.4161 51.7135 44.4232 54.798 42.5453 56.7422L2.18501 98.5263C-0.880815 101.7 1.3684 107 5.78127 107H40.3016C44.9449 107 49.2939 104.823 52.2779 101.265C63.975 87.3192 82.6008 69.5995 103.324 69.5995C107.517 69.5995 111.903 70.1365 116.303 71.8788C118.974 72.9366 121.65 74.4387 124.29 76.5347C116.502 61.0792 121.045 39.3819 124.29 30.4653C121.19 32.4558 118.589 33.8771 116.303 34.8913C111.078 37.2087 107.49 37.4005 103.324 37.4005C92.7997 37.4005 82.6427 32.4755 73.6216 25.7968C65.3349 19.6617 58.0066 12.0468 52.2327 5.40986Z" fill="url(#paint0_linear_746_200)"/>
<path d="M73.6216 25.7968C82.6427 32.4755 92.7997 37.4005 103.324 37.4005C107.49 37.4005 111.078 37.2087 116.303 34.8913L141.11 8.41896C144.103 5.22538 141.839 0 137.462 0H104.735C100.645 0 96.7318 1.67026 93.9025 4.62399L73.6216 25.7968Z" fill="url(#paint1_linear_746_200)"/>
<path d="M103.324 69.5995C92.6459 69.5995 82.5249 74.3041 73.6216 80.7729L93.8905 102.286C96.7249 105.295 100.675 107 104.808 107H137.514C141.883 107 144.15 101.791 141.173 98.593L116.303 71.8788C111.903 70.1365 107.517 69.5995 103.324 69.5995Z" fill="url(#paint2_linear_746_200)"/>
<defs>
<linearGradient id="paint0_linear_746_200" x1="-6" y1="53.5" x2="117.052" y2="53.5" gradientUnits="userSpaceOnUse">
<stop stop-color="#C0C0C0"/>
<stop offset="1" stop-color="#C0C0C0" stop-opacity="0"/>
</linearGradient>
<linearGradient id="paint1_linear_746_200" x1="149.25" y1="-1.63356e-07" x2="80.5516" y2="32.3567" gradientUnits="userSpaceOnUse">
<stop stop-color="#C0C0C0"/>
<stop offset="1" stop-color="#C0C0C0" stop-opacity="0"/>
</linearGradient>
<linearGradient id="paint2_linear_746_200" x1="149.25" y1="107" x2="82.3117" y2="73.6488" gradientUnits="userSpaceOnUse">
<stop stop-color="#C0C0C0"/>
<stop offset="1" stop-color="#C0C0C0" stop-opacity="0"/>
</linearGradient>
</defs>
</svg>
